<?xml version="1.0" encoding="UTF-8"?>
<svg width="1024" height="1024" version="1.1" viewBox="0 0 1024 1024"
  xmlns="http://www.w3.org/2000/svg">
  <defs>
    <linearGradient id="bg" x1="966" x2="559" y1="76" y2="698" gradientUnits="userSpaceOnUse">
      <stop stop-color="#011d41" offset="0" />
      <stop stop-color="#00001d" offset="1" />
    </linearGradient>
    <linearGradient id="fg" x1="643" x2="442" y1="226" y2="871" gradientUnits="userSpaceOnUse">
      <stop stop-color="#fefefe" offset="0" />
      <stop stop-color="#3dfff2" offset=".33252" />
      <stop stop-color="#49ceff" offset=".57056" />
      <stop stop-color="#0648cc" offset="1" />
    </linearGradient>
  </defs>
  <rect width="1024" height="1024" fill="url(#bg)" />
  <path
    d="m804 889c19-16 15-45 16-68 1-78-22-156-64-222-29-47-83-81-91-138-6-46 46-77 88-73 16 2 19-21 5-24-33-9-70-8-103-1-63 14-117 73-109 139 8 64 63 107 106 149 47 47 79 109 81 176 1 21 36 21 37-1 5-86-46-163-105-221-35-34-83-72-79-127 2-30 29-59 53-67-29 43-6 100 26 136 44 48 83 102 101 166 14 52 22 105 14 158-2 12 14 23 25 17zm-571-1c11-5 12-16 7-24-27-46-38-98-34-151 4-44 18-89 38-128 42-80 107-143 189-181 10-5 16-17 13-26s-13-14-23-11c-77 29-138 85-185 151-32 44-52 95-65 147-5-9-2-32-2-47-0-129 77-257 197-310 30-13 59-16 91-24 10-3 16-15 14-24s-9-14-20-14c-117 7-220 86-275 186-36 65-51 139-47 213 4 71 22 105 40 142 9 34 22 62 41 91 4 4 11 13 22 8zm466-47c16-14 6-40 0-57-25-80-99-128-160-180-27-23-42-52-56-85-4-10-15-12-24-8-11 5-13 16-11 27 20 74 88 117 143 163 40 34 71 78 80 131 2 11 18 16 27 9zm-95-35c5-11-6-23-14-26-88-31-171-105-193-199-5-24-0-52-2-65-2-11-7-19-20-19-13 0-19 12-20 23-10 99 48 194 129 247 32 21 68 40 94 47 13 4 20 3 26-9zm219-350c54-41 48-130-1-172-20-17-46-29-73-31-17 12-25 35-48 41-19 5-43 19-43 41 37-0 79-6 114 4 44 12 64 65 49 107-2 4-9 19 1 11zm-196-159c11-4 29-22 15-29-24-11-50-18-76-21-6 30 30 59 60 50zm-327-25c66-42 145-63 224-61 60 2 115 20 171 44 18 8 34-21 15-32-52-32-114-49-175-52-80-5-162 13-232 53-14 8-40 23-26 42 4 6 15 10 23 6z"
    fill="url(#fg)"
  />
</svg>