<?xml version="1.0" encoding="UTF-8" standalone="no" ?>
<svg
  width="1024"
  height="1024"
  version="1.1"
  viewBox="0 0 1024 1024"
  inkscape:version="1.4.2 (ebf0e940, 2025-05-08)"
  xmlns:inkscape="http://www.inkscape.org/namespaces/inkscape"
  xmlns:sodipodi="http://sodipodi.sourceforge.net/DTD/sodipodi-0.dtd"
  xmlns="http://www.w3.org/2000/svg"
>
  <defs>
  <linearGradient
    id="bg"
    x1="966"
    x2="559"
    y1="76"
    y2="698"
    gradientUnits="userSpaceOnUse"
  >
  <stop stop-color="#011d41" offset="0" />
  <stop stop-color="#00001d" offset="1" />
  </linearGradient>
  <linearGradient
    id="fg"
    x1="643"
    x2="442"
    y1="226"
    y2="871"
    gradientUnits="userSpaceOnUse"
  >
  <stop stop-color="#fefefe" offset="0" />
  <stop stop-color="#3dfff2" offset=".33252" />
  <stop stop-color="#49ceff" offset=".57056" />
  <stop stop-color="#0648cc" offset="1" />
  </linearGradient>
  <inkscape:path-effect
    effect="powerstroke"
    id="powerstroke-1"
    is_visible="true"
    lpeversion="1.3"
    scale_width="1"
    interpolator_type="CentripetalCatmullRom"
    interpolator_beta="0.2"
    start_linecap_type="round"
    end_linecap_type="round"
    offset_points="0.029920211,17.283784 | 0.55898846,19.162377 | 1.2837427,20.330297 | 1.9798772,16.751795"
    linejoin_type="round"
    miter_limit="4"
    not_jump="false"
    sort_points="true"
  />
  <inkscape:path-effect
    effect="powerstroke"
    id="powerstroke-2"
    is_visible="true"
    lpeversion="1.3"
    scale_width="1"
    interpolator_type="CentripetalCatmullRom"
    interpolator_beta="0.2"
    start_linecap_type="round"
    end_linecap_type="round"
    offset_points="0.0031024745,17.036423 | 0.51159729,20.832945 | 0.30585846,20.384058 | 1,17.3082 | 0.71634617,19.736109"
    linejoin_type="round"
    miter_limit="4"
    not_jump="false"
    sort_points="true"
  />
  <inkscape:path-effect
    effect="powerstroke"
    id="powerstroke-3"
    is_visible="true"
    lpeversion="1.3"
    scale_width="1"
    interpolator_type="CentripetalCatmullRom"
    interpolator_beta="0.2"
    start_linecap_type="round"
    end_linecap_type="round"
    offset_points="0,15.835925 | 1.4843834,18.623236 | 0.73388239,18.153404 | 2.994634,17.309964 | 4.1228253,18.157955 | 5.7935639,13.363461"
    linejoin_type="round"
    miter_limit="4"
    not_jump="false"
    sort_points="true"
  />
  <inkscape:path-effect
    effect="powerstroke"
    id="powerstroke-4"
    is_visible="true"
    lpeversion="1.3"
    scale_width="1"
    interpolator_type="CentripetalCatmullRom"
    interpolator_beta="0.2"
    start_linecap_type="round"
    end_linecap_type="round"
    offset_points="0.60005352,19.959498 | 0.086904814,15.998628 | 2.0000916,20.282058 | 2.9266215,19.769356 | 3.7390696,13.149267"
    linejoin_type="round"
    miter_limit="4"
    not_jump="false"
    sort_points="true"
  />
  <inkscape:path-effect
    effect="powerstroke"
    id="powerstroke-5"
    is_visible="true"
    lpeversion="1.3"
    scale_width="1"
    interpolator_type="CentripetalCatmullRom"
    interpolator_beta="0.2"
    start_linecap_type="round"
    end_linecap_type="round"
    offset_points="0.072220778,15.349376 | 0.43921233,19.279229 | 1.9638587,26.406343 | 2.8608031,18.807259 | 3.8350846,15.327954"
    linejoin_type="round"
    miter_limit="4"
    not_jump="false"
    sort_points="true"
  />
  <inkscape:path-effect
    effect="powerstroke"
    id="powerstroke-6"
    is_visible="true"
    lpeversion="1.3"
    scale_width="1"
    interpolator_type="CentripetalCatmullRom"
    interpolator_beta="0.2"
    start_linecap_type="zerowidth"
    end_linecap_type="round"
    offset_points="1.2384704,22.870462 | 0.74349341,18.358708 | 0.26338855,20.015262 | 0.14566097,15.747222 | 2.5017991,20.922636 | 3.983874,10.859216 | 3.6397129,13.30268 | 3.2173296,16.604247"
    linejoin_type="round"
    miter_limit="4"
    not_jump="false"
    sort_points="true"
  />
  <inkscape:path-effect
    effect="powerstroke"
    id="powerstroke-7"
    is_visible="true"
    lpeversion="1.3"
    scale_width="1"
    interpolator_type="CentripetalCatmullRom"
    interpolator_beta="0.2"
    start_linecap_type="round"
    end_linecap_type="round"
    offset_points="0,24.186075 | 0.52561094,20.40427 | 0.98169616,15.77784"
    linejoin_type="round"
    miter_limit="4"
    not_jump="false"
    sort_points="true"
  />
  </defs>
  <rect
    x="0"
    y="0"
    width="1024"
    height="1024"
    fill="url(#bg)"
    inkscape:label="background"
  />
  <path
    d="m 823,456 c 54,-41 48,-130 -1,-172 -20,-17 -46,-29 -73,-31 -17,12 -25,35 -48,41 -19,5 -43,19 -43,41 37,0 79,-6 114,4 44,12 64,65 49,107 -2,4 -9,19 1,11 z M 627,297 c 11,-4 29,-22 15,-29 -24,-11 -50,-18 -76,-21 -6,30 30,59 60,50 z"
    style="fill:url(#fg);"
    sodipodi:nodetypes="cccccccccccccc"
  />
  <path
    style="fill:url(#fg);stroke:none;stroke-linecap:round"
    d="m 241.43084,865.02489 c -1.00053,-1.67908 -3.33889,-5.26794 -5.63318,-9.64151 -2.95619,-5.63533 -6.3119,-13.42349 -9.40064,-21.77405 -2.33621,-6.31609 -4.46121,-12.78178 -6.4096,-19.47006 -0.5239,-1.79842 -1.03937,-3.68419 -1.53467,-5.65633 -1.67546,-6.67118 -3.00667,-13.85186 -3.921,-22.46722 -0.77312,-7.28474 -1.216,-15.20337 -1.49444,-25.08687 -0.40608,-17.12238 -0.18863,-36.79308 2.31641,-58.6005 2.62418,-22.84473 7.28933,-44.01476 13.76059,-64.88132 0.56551,-1.8235 1.1428,-3.64135 1.73197,-5.45346 8.75368,-26.92851 21.12643,-55.21125 33.35928,-78.74333 9.43987,-18.15926 19.9825,-35.82738 31.37365,-51.54874 4.01213,-5.53729 8.22071,-11.03404 12.52704,-16.30915 l -0.0594,0.0674 c 18.18624,-21.78333 36.91317,-39.40319 56.90872,-53.36916 17.09717,-11.94159 32.44638,-19.31291 43.44687,-23.88232 10.77881,-4.47733 19.8441,-7.04444 23.92832,-8.22873 a 15.327954,15.327954 90 0 0 -8.53756,-29.44308 c -4.51465,1.30911 -14.6129,4.47283 -26.81417,9.22379 -12.51896,4.87465 -30.10687,12.68133 -49.98837,25.47972 -23.34104,15.02542 -44.82989,33.64611 -65.97813,56.28446 l -0.0594,0.0674 c -5.14801,5.51133 -10.15769,11.19848 -14.9532,16.87342 -13.45946,15.92777 -27.32017,33.66908 -39.80845,51.79759 -16.40362,23.81215 -33.6298,52.87395 -45.10585,84.55782 -0.76521,2.1124 -1.50598,4.23749 -2.22157,6.37535 -8.12407,24.27081 -13.10987,50.11022 -14.7406,76.73083 -1.56305,25.51581 0.15978,48.24172 2.71188,66.83599 1.43612,10.79346 3.13004,20.17266 5.29661,28.99452 2.58331,10.51875 5.64823,19.42609 8.91647,27.37337 0.96428,2.34483 1.92923,4.56333 2.87281,6.64623 3.48149,7.68522 7.46863,14.75007 11.36044,21.12512 5.22583,8.56025 10.31913,15.97782 13.86357,21.71492 2.74189,4.43807 4.87597,8.38063 5.91381,10.12232 a 15.349376,15.349376 90 0 0 26.37176,-15.71444 z"
    inkscape:path-effect="#powerstroke-5"
    inkscape:original-d="M 228.24496,872.88211 C 200.09436,825.64013 193.18014,801.93546 189.93634,762.84585 186.94006,726.7391 187.06211,678.18351 205.96597,623.40713 224.86984,568.63075 262.16102,510.42031 294.52971,473.49209 333.45163,429.53081 374.94617,400.6599 428.062,385.258"
    sodipodi:nodetypes="csscc"
  />
  <path
    style="fill:url(#fg);stroke:none;stroke-linecap:round"
    d="m 196.94214,794.10407 c 0.54956,-5.70866 3.88204,-22.95996 3.4011,-31.97816 -0.36761,-6.89294 -1.38096,-10.7351 -3.65341,-17.33423 -0.21685,-0.62973 -0.44294,-1.27834 -0.68006,-1.95541 -2.85576,-8.15442 -8.59668,-18.47295 -13.49008,-29.67092 -4.35937,-9.97587 -7.96988,-20.67898 -9.76905,-33.61224 -0.0504,-0.36253 -0.0996,-0.7262 -0.14754,-1.09103 -1.89887,-14.45235 -1.95201,-31.5187 -0.93513,-53.88052 0.85602,-14.88137 2.81033,-31.62422 5.6556,-49.65278 2.46182,-15.59884 5.72101,-31.76259 9.97671,-48.42509 3.42161,-13.39672 7.0519,-25.39169 10.43258,-35.36668 1.59165,-4.69632 3.04391,-8.69613 4.28722,-11.95226 1.42006,-3.71903 2.0266,-5.09861 2.70397,-6.76403 16.76738,-33.69056 35.80986,-60.56504 53.17331,-81.12348 21.38297,-25.31757 43.0274,-44.91024 62.44565,-59.4583 9.69149,-7.26947 18.86209,-13.51104 27.65195,-18.89126 12.96377,-7.93505 25.00345,-14.14553 36.23474,-19.00201 6.10161,-2.63838 12.2492,-5.00062 18.48426,-7.07403 8.66448,-2.88129 17.94888,-5.42184 27.91602,-7.42533 9.55908,-1.92146 17.48615,-2.87058 20.73845,-3.16371 1.28798,-0.11608 2.05279,-0.1286 2.42281,-0.14981 a 10.859216,10.859216 90 0 0 -1.24298,-21.68284 c -0.43722,0.0251 -1.18457,0.0982 -2.61803,0.16189 -3.64632,0.16207 -12.03574,0.39376 -22.78283,1.49683 -11.10121,1.13941 -21.56141,2.87941 -31.48861,5.11011 -7.12383,1.60076 -14.23055,3.47853 -21.32371,5.6646 -13.09829,4.03681 -27.19145,9.4418 -42.34262,16.96576 -10.24439,5.08729 -20.92876,11.02869 -32.13346,18.06024 -22.97268,14.46306 -48.48688,34.51048 -73.36797,61.73513 -20.13636,22.03301 -42.35062,51.20906 -61.86714,88.18688 -1.50425,2.70526 -3.1235,6.0588 -4.83004,9.9773 -1.73323,3.97976 -3.60835,8.66472 -5.54582,13.94649 -4.09625,11.16687 -8.3089,24.55291 -12.05605,39.22993 -4.6464,18.1993 -8.07469,36.39392 -10.17528,53.65731 -2.4731,20.32479 -2.80983,38.92762 -1.93981,55.94576 1.00782,23.46596 3.4346,43.03707 6.18182,59.36785 0.0711,0.42288 0.14278,0.84514 0.21489,1.26675 2.65702,15.53287 5.29508,28.1464 9.38614,41.35848 4.25875,13.75368 9.5938,26.20899 13.97727,33.40067 0.37603,0.61694 0.73825,1.20784 1.08776,1.77267 3.67926,5.94598 5.8836,8.91828 10.7828,13.48229 3.06235,2.85283 8.46181,6.55987 13.32635,9.9876 5.14564,3.62582 9.56843,6.84347 11.90822,8.87958 z"
    inkscape:path-effect="#powerstroke-6"
    inkscape:original-d="M 196.94214,794.10407 C 171.01376,729.06631 150.88728,717.69952 150.87243,624.58487 150.86031,548.59089 176.6139,477.82389 184.674,462.126 c 32.67667,-63.64215 78.28593,-112.98779 125.42693,-145.25179 45.941,-31.442 90.8533,-48.58956 143.06882,-51.58284"
    sodipodi:nodetypes="csccc"
  />
  <path
    style="fill:url(#fg);stroke:none;stroke-linecap:round"
    d="m 298.87801,271.1094 c 0,0 -0.26594,0.15737 0,0 16.41846,-9.71534 44.73675,-24.93463 82.53304,-37.06425 38.41301,-12.32754 76.45417,-18.26907 112.78504,-19.65103 3.55167,-0.1351 7.01624,-0.22406 10.38876,-0.27373 34.40535,-0.50669 70.77705,2.84795 108.452,11.44252 36.03406,8.22025 63.44697,19.14043 73.8392,23.57317 3.65873,1.56061 5.99452,2.69215 6.92635,3.12096 a 15.77784,15.77784 90 0 0 13.19156,-28.66608 c -1.22655,-0.56443 -3.29069,-1.4654 -7.38344,-3.32691 -11.02104,-5.01271 -39.46087,-18.11949 -77.80367,-28.94759 -39.92802,-11.27576 -79.38891,-17.02107 -116.95123,-18.00371 -3.68979,-0.0965 -7.48539,-0.151 -11.38077,-0.15584 -39.78927,-0.0494 -82.14482,5.08799 -125.21752,17.41835 -42.50716,12.16845 -74.56339,28.2002 -93.30464,38.49316 -0.30282,0.16631 0,0 0,0 a 24.186075,24.186075 90 0 0 23.92532,42.04098 z"
    inkscape:path-effect="#powerstroke-7"
    inkscape:original-d="M 286.91535,250.08891 C 417.26772,175.906 570.52236,178.15774 700.39818,237.924"
    sodipodi:nodetypes="cc"
  />
  <path
    style="fill:url(#fg);stroke:none;stroke-width:40.8085;stroke-linecap:round"
    d="m 594.23952,783.72938 c -0.77998,-0.34243 -2.27861,-0.96894 -4.82294,-2.11804 -4.04189,-1.82545 -16.98002,-7.8142 -28.94643,-13.77378 -13.45008,-6.69848 -26.54857,-13.7512 -39.49302,-21.89081 -2.74789,-1.7279 -5.38258,-3.43768 -7.92377,-5.13434 -18.39841,-12.28401 -37.59109,-28.16265 -57.95344,-51.06812 -10.76473,-12.11866 -20.59188,-26.40637 -29.19327,-41.62078 -1.17941,-2.08619 -2.3318,-4.1827 -3.45696,-6.28596 -6.56152,-12.26553 -13.09066,-26.30723 -18.66743,-41.7235 -6.15975,-17.02789 -10.0819,-32.78033 -12.03868,-46.35834 -1.14987,-7.97893 -1.52861,-14.5503 -1.51401,-19.79809 0.0199,-7.16852 0.78535,-11.81632 1.15293,-13.6127 0.2455,-1.19975 0.47684,-1.93533 0.54849,-2.19856 a 16.751795,16.751795 90 0 0 -32.32732,-8.7997 c -0.0688,0.25258 -0.47538,1.85704 -0.88734,3.55436 -0.73137,3.01331 -2.34782,9.69623 -3.10985,19.4688 -0.55026,7.05662 -0.64331,15.44376 0.12247,25.26286 1.29289,16.57772 4.88999,35.24742 11.00911,54.88469 5.53295,17.75614 12.45468,34.13581 19.70121,48.20228 1.25061,2.42758 2.5411,4.84947 3.87103,7.26147 9.64134,17.48591 21.30682,34.36217 34.69114,48.96527 23.33412,25.4407 45.95132,42.74905 67.2858,56.07712 2.92324,1.8262 5.95107,3.64819 9.09201,5.46662 14.71069,8.51661 29.52829,15.57831 43.84714,21.89048 13.75273,6.0626 25.34561,10.7666 30.28235,12.87704 2.60764,1.11475 4.02678,1.7685 4.8351,2.12337 a 17.283784,17.283784 90 0 0 13.89568,-31.65164 z"
    inkscape:path-effect="#powerstroke-1"
    inkscape:original-d="M 587.29168,799.5552 C 533.24927,775.82953 487.44513,755.78613 440.05068,703.34534 392.38982,650.60977 363.03127,560.53482 375.76733,513.74651"
    sodipodi:nodetypes="csc"
  />
  <path
    style="fill:url(#fg);stroke:none;stroke-linecap:round"
    d="m 705.65279,823.31314 c -0.0384,-0.25159 -0.10023,-0.59499 -0.23464,-1.5058 -0.28551,-1.93474 -1.35673,-9.91599 -3.5003,-19.56269 -2.27522,-10.23916 -5.63084,-21.97505 -10.77925,-34.59513 -7.00451,-17.16989 -15.84002,-32.33046 -25.58776,-45.82137 -4.96919,-6.87739 -9.82573,-12.83282 -14.03028,-17.66718 -17.61567,-20.25435 -37.48134,-37.17778 -54.99836,-51.49226 -1.12335,-0.91797 -2.25051,-1.83594 -3.38301,-2.7559 -18.58698,-15.09859 -39.32675,-30.93561 -56.61285,-47.22848 -2.60738,-2.45756 -5.38,-5.14307 -8.22205,-8.0216 -9.49107,-9.6129 -18.56881,-20.17295 -26.40528,-32.10144 -10.23392,-15.57782 -15.51052,-29.25626 -18.40863,-38.30708 -0.0878,-0.27415 0,0 0,0 a 17.3082,17.3082 90 0 0 -33.20974,9.76774 c 0,0 -0.0923,-0.33805 0,0 3.04961,11.17194 8.70752,28.29679 20.27985,47.94307 8.80885,14.95473 19.0377,28.00904 29.38953,39.43675 3.10392,3.42653 6.11697,6.59341 8.92702,9.45297 18.65316,18.9818 39.78283,36.34905 57.85495,51.28704 -0.13328,-0.11017 3.42536,2.83493 3.29208,2.72477 16.94462,14.0464 35.44215,29.70883 51.18184,46.55358 3.79401,4.06039 8.16264,8.93142 12.65672,14.50038 8.7887,10.89076 16.81139,22.90542 23.4261,36.64514 4.87253,10.12095 8.24965,19.66587 10.65732,28.16726 2.29226,8.09384 3.52035,14.67801 3.82252,16.4284 0.12776,0.74002 0.17395,1.11255 0.2011,1.29047 a 17.036423,17.036423 90 0 0 33.68312,-5.13864 z"
    inkscape:path-effect="#powerstroke-2"
    inkscape:original-d="M 688.81123,825.88246 C 665.83207,675.25728 504.33071,656.44955 466.88551,529.13808"
    sodipodi:nodetypes="cc"
  />
  <path
    style="fill:url(#fg);stroke:none;stroke-linecap:round"
    d="m 812.94851,875.95699 c 0,0 -0.0578,0.19135 0,0 1.0234,-3.38622 2.73147,-9.43674 4.23191,-18.40424 1.09228,-6.5281 1.98823,-14.07802 2.52768,-22.65746 0.51967,-8.2651 0.65818,-16.70443 0.46991,-24.95524 -0.23777,-10.42045 -0.95664,-21.28179 -2.15258,-32.54548 -2.02518,-19.0554 -6.04617,-40.74805 -12.08856,-63.34483 -0.17245,-0.64494 -0.34713,-1.29209 -0.52404,-1.94129 -2.61568,-9.59914 -5.68909,-19.54266 -9.13985,-29.22041 -3.10228,-8.70046 -6.47831,-17.09479 -9.9882,-24.56546 -7.93481,-16.9707 -16.39537,-34.015 -27.00041,-51.26313 -11.19165,-18.20221 -23.78336,-35.02165 -38.97139,-51.88533 -7e-5,-8e-5 -0.5241,-0.58084 -0.52418,-0.58092 -11.06875,-12.2452 -19.20053,-21.65358 -25.62826,-29.6946 -6.75888,-8.45528 -11.52215,-15.26975 -15.13477,-21.39176 -3.59177,-6.08666 -6.19627,-11.74638 -8.34571,-17.79244 -2.085,-5.86478 -3.86695,-12.43217 -5.77769,-21.05487 -0.6276,-2.81674 -1.0426,-5.53136 -1.26388,-8.15056 -0.21266,-2.51727 -0.25683,-5.03241 -0.10495,-7.54947 0.26741,-4.43163 1.14002,-8.82853 2.73627,-13.24266 3.01241,-8.33026 8.39151,-16.11105 15.5915,-23.41368 7.57194,-7.72424 17.81121,-14.43283 28.82004,-18.78777 9.15473,-3.62148 17.35279,-5.05748 23.50798,-5.514 8.71428,-0.64633 15.54654,0.47351 18.62244,0.97257 a 13.363461,13.363461 90 0 0 4.28046,-26.38192 c -3.99758,-0.64861 -13.00995,-1.78724 -24.43889,-1.27346 -8.14277,0.36606 -18.91141,1.58673 -31.29019,5.47228 -14.72478,4.62193 -29.01823,12.21991 -40.77611,22.02367 -10.27958,8.54543 -20.08732,19.53613 -26.39918,33.44984 -3.40039,7.49575 -5.54793,15.32414 -6.44105,23.37184 -0.50261,4.52881 -0.59182,8.98233 -0.34171,13.31943 0.26017,4.51166 0.89112,9.01614 1.85832,13.49494 2.08153,9.6384 4.37441,17.94061 7.39077,25.85763 3.16793,8.31489 7.05356,15.981 12.02874,23.83695 4.90259,7.74134 10.88733,15.70578 18.39973,24.78855 7.12968,8.62003 15.80574,18.45607 27.02026,30.87029 0.15896,0.176 0.31764,0.35208 0.47602,0.52824 13.7172,15.25666 24.81056,30.52119 34.49343,46.94124 9.25239,15.69004 16.66807,31.48144 24.05302,48.15031 2.75834,6.29647 5.55594,13.65678 8.25007,21.61101 2.98606,8.81613 5.6995,17.92605 8.09149,26.81174 0.16122,0.59891 0.32075,1.19591 0.4786,1.79091 5.54163,20.88867 9.24157,40.87387 11.28161,57.90275 1.2433,10.38901 2.12809,20.39403 2.67219,29.82913 0.43567,7.55502 0.70374,15.00987 0.72413,22.4017 0.021,7.61844 -0.22562,14.14292 -0.62662,19.66806 -0.5417,7.4637 -1.30721,12.33318 -1.75737,14.76792 -0.0261,0.14138 0,0 0,0 a 15.835925,15.835925 90 0 0 30.70902,7.74998 z"
    inkscape:path-effect="#powerstroke-3"
    inkscape:original-d="m 797.594,872.082 c 4.7777,-18.93145 6.7363,-50.86059 2.0323,-92.61459 -4.704,-41.755 -17.81933,-87.01998 -29.9213,-113.59441 -15.53909,-34.11983 -31.61221,-65.20613 -62.75914,-99.6744 -42.79346,-47.35673 -52.16293,-62.4224 -59.86293,-97.6434 -6.642,-30.384 6.98407,-52.4562 24.14107,-67.9962 17.158,-15.54 47.728,-30.617 83.728,-24.776"
    sodipodi:nodetypes="cscsccc"
  />
  <path
    style="fill:url(#fg);stroke:none;stroke-linecap:round"
    d="m 767.54343,824.88485 c 0.068,-2.66506 -0.003,-8.35241 -0.37482,-16.00595 -0.36996,-7.61532 -1.01772,-17.89328 -3.12736,-30.84086 -2.31605,-14.21428 -6.18285,-30.24777 -12.24053,-47.25764 -2.15099,-6.03995 -4.53268,-12.07052 -7.13649,-18.01753 -3.51959,-8.03861 -7.69459,-16.56703 -12.51254,-25.16835 -6.84825,-12.22596 -14.98632,-24.57048 -23.98141,-35.21042 -8.94138,-10.57213 -19.06582,-21.40988 -29.85394,-32.50844 -10.38377,-10.68257 -21.25141,-21.46984 -31.3423,-31.63315 -10.55061,-10.62633 -19.87135,-20.18931 -27.91626,-29.09631 -8.85018,-9.79856 -15.03625,-17.58374 -19.11774,-23.89133 1.4e-4,2.2e-4 -0.005,-0.007 -0.005,-0.007 -4.77898,-7.38972 -8.88373,-17.35459 -11.17453,-28.36931 -2.42337,-11.65214 -2.71671,-23.89353 -0.36423,-35.65548 2.41007,-12.04995 7.64752,-23.93597 16.77617,-34.8692 6.52155,-7.81075 15.346,-15.51688 27.26338,-22.52775 4.87192,-2.8661 10.34725,-5.67782 16.51243,-8.35788 4.44162,-2.35529 10.59465,-5.36976 18.10234,-8.42171 7.81208,-3.17567 16.40103,-6.10948 25.31394,-8.36039 10.3347,-2.60998 19.86075,-3.98395 28.06475,-4.23473 0.44152,-0.0135 0.88251,-0.024 1.32284,-0.0315 13.95241,-0.23836 24.05906,2.466 29.66653,4.03022 a 13.149267,13.149267 90 0 0 7.06628,-25.33142 c -7.60245,-2.12072 -19.57383,-4.28603 -36.4095,-4.91196 -0.52142,-0.0194 -1.04303,-0.0373 -1.565,-0.0537 -9.87904,-0.31173 -20.65245,-0.18551 -33.06102,0.97262 -10.56035,0.98563 -20.77489,2.5849 -30.32085,4.57226 -9.08111,1.89058 -16.95543,4.01 -22.83707,5.87863 -7.71794,2.98927 -14.79215,6.2748 -21.26919,9.80507 -15.90342,8.66806 -28.72309,19.02853 -38.74555,30.59259 -14.16048,16.33857 -22.41364,34.70354 -26.087,53.256 -3.53025,17.82968 -2.81295,35.71573 0.73587,52.12649 3.31871,15.34673 9.24575,29.94214 16.91176,41.86387 0,0 0.008,0.0128 0.008,0.0128 5.70346,8.87065 13.37966,18.49132 22.82525,29.12313 8.65102,9.73746 18.45782,19.95688 29.02264,30.75021 10.20608,10.42682 20.8656,21.1348 30.92123,31.54751 10.48725,10.85963 19.88294,20.94442 28.06257,30.5079 7.00036,8.17055 13.8714,18.19316 20.11671,28.74968 4.34486,7.34418 8.22619,14.66845 11.64183,21.61595 2.52401,5.13391 4.93296,10.3075 7.20548,15.49658 6.41304,14.64353 11.21361,28.209 14.52169,40.26363 2.98101,10.86277 4.49744,19.59169 5.08483,25.80544 0.59471,6.29134 0.36113,10.91312 0.30852,12.97622 a 15.998628,15.998628 90 0 0 31.98686,0.8157 z"
    inkscape:path-effect="#powerstroke-4"
    inkscape:original-d="M 751.55,824.477 C 752.938,770.048 722.327,700.941 692.424,665.773 657.411,624.594 603.707,578.532 582.893,546.244 558.93,509.07 548.34758,425.61122 641.62,387.522 c 20.991,-8.57179 69.99748,-23.82629 113.332,-11.738"
    sodipodi:nodetypes="ccccc"
  />
</svg>
